# xmcd
#
# Track frame offsets: 
#        150
#        14530
#        32905
#        47712
#        64332
#        81087
#        95077
#        107857
#        125420
#        139312
#        159132
#
# Disc length: 2321 seconds
#
# Revision: 7
# Processed by: cddbd v1.5.2PL0 Copyright (c) Steve Scherf et al.
# Submitted via: ExactAudioCopy v0.99pb5
#
DISCID=96090f0b
DTITLE=John Berry - Standing On The Edge
DYEAR=1994
DGENRE=Country
TTITLE0=Every Time My Heart Calls Your Name
TTITLE1=Standing On The Edge Of Goodbye
TTITLE2=Prove Me Wrong
TTITLE3=I Think About It All The Time
TTITLE4=If I Had Any Pride Left At All
TTITLE5=Desperate Measures
TTITLE6=What Are We Fighting For
TTITLE7=There's No Cross That Love Won't Bear
TTITLE8=Ninety Miles An Hour
TTITLE9=I Never Lost You
TTITLE10=You And Only You
EXTD=
EXTT0=
EXTT1=
EXTT2=
EXTT3=
EXTT4=
EXTT5=
EXTT6=
EXTT7=
EXTT8=
EXTT9=
EXTT10=
PLAYORDER=
